<svg width="268" height="159" viewBox="0 0 268 159" fill="none" xmlns="http://www.w3.org/2000/svg">
<g clip-path="url(#clip0_1964_63326)">
<path d="M8.70922 14.7805C10.9426 14.7805 12.7292 12.0932 12.7292 8.73407C12.7292 7.61435 13.6226 6.71857 14.7392 6.71857C15.8559 6.71857 16.7492 7.61435 16.7492 8.73407C16.7492 12.0932 18.5359 14.7805 20.7692 14.7805C21.8859 14.7805 22.7792 15.6763 22.7792 16.796C22.7792 17.9158 21.8859 18.8115 20.7692 18.8115C18.5359 18.8115 16.7492 21.4989 16.7492 24.858C16.7492 25.9777 15.8559 26.8735 14.7392 26.8735C13.6226 26.8735 12.7292 25.9777 12.7292 24.6341C12.7292 21.2749 10.9426 18.5876 8.70922 18.5876C7.59255 18.8115 6.69922 17.9158 6.69922 16.796C6.69922 15.6763 7.59255 14.7805 8.70922 14.7805ZM151.643 17.2439C152.983 17.2439 154.099 15.6763 154.099 13.4369C154.099 12.7651 154.546 12.0932 155.439 12.0932C156.333 12.0932 156.779 12.5411 156.779 13.4369C156.779 15.4524 157.896 17.2439 159.236 17.2439C159.906 17.2439 160.576 17.6918 160.576 18.5876C160.576 19.2594 160.129 19.9312 159.236 19.9312C157.896 19.9312 156.779 21.4989 156.779 23.7383C156.779 24.4101 156.333 25.082 155.439 25.082C154.546 25.082 154.099 24.6341 154.099 23.7383C154.099 21.7228 152.983 19.9312 151.643 19.9312C150.973 19.9312 150.303 19.4834 150.303 18.5876C150.526 17.6918 150.973 17.2439 151.643 17.2439ZM245.889 6.71857C246.559 6.71857 247.229 5.8228 247.229 4.70308C247.229 4.25519 247.453 4.03125 247.899 4.03125C248.346 4.03125 248.569 4.25519 248.569 4.70308C248.569 5.8228 249.239 6.71857 249.909 6.71857C250.356 6.71857 250.579 6.94252 250.579 7.3904C250.579 7.83829 250.356 8.06224 249.909 8.06224C249.239 8.06224 248.569 8.95801 248.569 10.0777C248.569 10.5256 248.346 10.7496 247.899 10.7496C247.453 10.7496 247.229 10.5256 247.229 10.0777C247.229 8.95801 246.559 8.06224 245.889 8.06224C245.443 8.06224 245.219 7.83829 245.219 7.3904C245.219 6.94252 245.443 6.71857 245.889 6.71857ZM260.183 14.1087C259.066 14.1087 258.173 12.7651 258.173 11.1974C258.173 10.7496 257.726 10.3017 257.279 10.3017C256.833 10.3017 256.386 10.7496 256.386 11.1974C256.386 12.7651 255.493 14.1087 254.376 14.1087C253.929 14.1087 253.483 14.5566 253.483 15.0045C253.483 15.4524 253.929 15.9003 254.376 15.9003C255.493 15.9003 256.386 17.2439 256.386 18.8115C256.386 19.2594 256.833 19.7073 257.279 19.7073C257.726 19.7073 258.173 19.2594 258.173 18.8115C258.173 17.2439 259.066 15.9003 260.183 15.9003C260.629 15.9003 261.076 15.4524 261.076 15.0045C261.076 14.5566 260.629 14.1087 260.183 14.1087Z" fill="#FFE399"/>
<path d="M76.38 156.762C112.113 156.762 141.147 127.65 141.147 91.8187C141.147 55.9877 112.113 26.875 76.38 26.875C40.6466 26.875 11.6133 55.9877 11.6133 91.8187C11.6133 127.874 40.6466 156.762 76.38 156.762Z" fill="#C7E0F4"/>
<mask id="mask0_1964_63326" style="mask-type:luminance" maskUnits="userSpaceOnUse" x="11" y="26" width="131" height="131">
<path d="M76.38 156.762C112.113 156.762 141.147 127.65 141.147 91.8187C141.147 55.9877 112.113 26.875 76.38 26.875C40.6466 26.875 11.6133 55.9877 11.6133 91.8187C11.6133 127.874 40.6466 156.762 76.38 156.762Z" fill="white"/>
</mask>
<g mask="url(#mask0_1964_63326)">
<path d="M121.493 138.624C121.046 133.921 120.153 128.994 119.259 123.844C117.696 115.782 107.646 81.7422 95.8092 70.7689C92.0125 67.1858 88.2159 65.1703 84.4192 66.9619C78.8359 69.4253 77.2725 79.0548 80.8459 83.9816C80.8459 83.9816 97.5959 112.646 105.859 134.145C107.646 138.848 108.986 142.879 110.326 147.358C114.123 144.67 117.919 141.983 121.493 138.624Z" fill="url(#paint0_radial_1964_63326)"/>
</g>
<mask id="mask1_1964_63326" style="mask-type:luminance" maskUnits="userSpaceOnUse" x="11" y="26" width="131" height="131">
<path d="M76.38 156.762C112.113 156.762 141.147 127.65 141.147 91.8187C141.147 55.9877 112.113 26.875 76.38 26.875C40.6466 26.875 11.6133 55.9877 11.6133 91.8187C11.6133 127.874 40.6466 156.762 76.38 156.762Z" fill="white"/>
</mask>
<g mask="url(#mask1_1964_63326)">
<path d="M100.053 98.5394C102.063 92.045 102.287 88.4619 101.84 84.8788C101.393 77.9366 98.7134 72.114 91.3434 68.0831H91.1201C86.4301 65.3957 80.8468 63.8281 74.8168 63.8281C69.2334 63.8281 65.4368 64.0521 59.8534 66.9633C59.8534 66.9633 42.6568 75.6971 44.8901 89.8056C45.7834 95.1802 47.7934 98.9873 48.9101 105.93C51.3668 121.382 46.9001 139.297 43.7734 149.375C51.3668 153.853 60.3001 156.765 69.0101 157.661C72.8068 158.108 73.9234 158.108 76.1568 158.108C78.6134 158.108 81.0701 157.884 83.3034 157.661C91.1201 156.765 98.7134 154.301 105.413 150.942C102.287 138.625 96.0334 114.215 100.053 98.5394Z" fill="url(#paint1_radial_1964_63326)"/>
</g>
<path d="M56.5033 30.6833C56.5033 36.058 58.29 40.9847 61.1933 44.7918C62.0866 46.1355 63.2033 45.0157 64.32 46.1355C65.2133 46.8073 66.1066 49.7186 67 50.3904C70.35 52.4059 74.1466 53.5256 78.1666 53.5256C90.0033 53.3016 99.6066 42.7763 99.3833 29.7876C99.16 17.0228 94.2467 6.94531 77.4967 6.94531C61.1933 6.94531 56.28 17.9186 56.5033 30.6833Z" fill="#5A4539"/>
<path d="M94.246 56.8795C91.3427 56.8795 89.1094 54.6401 89.1094 51.7288C89.1094 48.8176 91.3427 46.5781 94.246 46.5781C97.1494 46.5781 99.3827 48.8176 99.3827 51.7288C99.3827 54.6401 97.1494 56.8795 94.246 56.8795ZM94.246 47.6978C92.0127 47.6978 90.226 49.4894 90.226 51.7288C90.226 53.9683 92.0127 55.7598 94.246 55.7598C96.4794 55.7598 98.266 53.9683 98.266 51.7288C98.266 49.4894 96.4794 47.6978 94.246 47.6978Z" fill="#FFC733"/>
<path d="M64.543 15.008C66.7763 2.24317 81.293 0.00373459 90.673 3.81078C98.713 7.16993 103.18 15.2319 105.636 9.40937C105.636 9.40937 111.89 15.9037 110.103 23.2939C108.316 30.684 101.616 33.1474 95.5863 30.684C91.5663 29.1164 87.7696 22.3981 80.1763 17.9192C73.6996 14.5601 64.543 15.008 64.543 15.008Z" fill="#5A4539"/>
<path d="M68.5621 59.796V45.6875H81.9621V59.572C82.1855 62.7072 82.4088 63.8269 85.5355 65.3945C89.5555 67.41 81.5155 67.8579 75.4855 67.8579C69.2321 67.8579 60.9688 66.5143 64.3188 65.1706C66.9988 64.2748 68.7855 63.603 68.5621 59.796Z" fill="url(#paint2_radial_1964_63326)"/>
<path d="M62.5332 36.7303C62.5332 49.4951 70.1265 59.5726 79.2832 59.5726C88.4399 59.5726 96.0332 49.2712 96.0332 36.7303C96.0332 24.1895 88.4399 15.0078 79.2832 15.0078C69.9032 15.0078 62.5332 24.1895 62.5332 36.7303Z" fill="#BF8F67"/>
<path d="M64.0957 56.8795C61.1923 56.8795 58.959 54.6401 58.959 51.7288C58.959 48.8176 61.1923 46.5781 64.0957 46.5781C66.999 46.5781 69.2323 48.8176 69.2323 51.7288C69.2323 54.6401 66.999 56.8795 64.0957 56.8795ZM64.0957 47.6978C61.8623 47.6978 60.0757 49.4894 60.0757 51.7288C60.0757 53.9683 61.8623 55.7598 64.0957 55.7598C66.329 55.7598 68.1157 53.9683 68.1157 51.7288C68.1157 49.4894 66.329 47.6978 64.0957 47.6978Z" fill="#FFC733"/>
<path d="M61.6387 66.0649C66.3287 68.5283 72.582 70.0959 79.7287 70.0959C84.4187 70.0959 87.7687 68.5283 89.5553 66.9607C84.4187 64.0494 80.8453 62.9297 75.0387 62.9297C69.902 62.9297 66.7753 63.3776 61.6387 66.0649Z" fill="#BF8F67"/>
<path d="M61.1934 18.8148C61.1934 18.8148 71.2434 13.6641 79.73 13.6641C88.2167 13.6641 96.2567 18.8148 96.2567 18.8148L97.15 36.7303L96.7034 37.1781L95.81 23.9655C95.5867 22.8458 94.6934 22.1739 93.5767 22.1739H69.68C68.7867 22.1739 67.67 22.8458 67.4467 23.9655L64.7667 37.1781L62.5334 37.4021L61.1934 18.8148Z" fill="#5A4539"/>
<path d="M71.2435 46.8066H64.7669C62.0869 46.8066 59.8535 44.5672 59.8535 41.8799C59.8535 39.1926 62.0869 36.9531 64.7669 36.9531H71.2435V46.8066Z" fill="#BF8F67"/>
<path d="M85.9824 49.0435C89.1091 49.0435 91.7891 46.3562 91.7891 43.221C91.7891 40.0858 89.1091 37.3984 85.9824 37.3984C82.8558 37.3984 80.1758 40.0858 80.1758 43.221C80.1758 46.3562 82.8558 49.0435 85.9824 49.0435Z" fill="url(#paint3_radial_1964_63326)"/>
<path d="M84.6426 26.4219L85.0893 33.1402C85.0893 36.7233 87.0993 39.8585 88.216 41.4261C88.886 42.3219 88.6626 43.4416 87.9926 44.1134C86.6526 45.2331 85.0893 47.0247 85.0893 48.8162L85.3126 52.8472L73.476 51.9515L73.0293 26.4219H84.6426Z" fill="#BF8F67"/>
<path d="M78.3897 38.0728C78.3897 36.7291 77.7197 35.6094 77.0497 35.6094C76.1563 35.6094 75.7097 36.7291 75.4863 38.0728C75.4863 39.4164 76.1563 40.5361 76.8263 40.5361C77.7197 40.3122 78.3897 39.4164 78.3897 38.0728Z" fill="#3A312E"/>
<path d="M87.3225 51.5051C86.4292 52.8487 84.6425 53.5206 82.8559 53.0727C81.9625 52.8487 81.2925 52.4008 80.6225 51.953C79.9525 51.2811 79.5059 50.6093 79.5059 49.9375C79.5059 49.7135 79.7292 49.2656 79.9525 49.2656H80.1759C80.8459 49.4896 81.2925 49.9375 81.9625 49.9375C82.6325 49.9375 82.8559 50.1614 83.3025 50.3853C83.7492 50.6093 84.1959 50.6093 84.8659 50.6093H86.6525C86.8759 50.6093 87.3225 50.8332 87.3225 51.2811C87.5459 51.2811 87.5459 51.5051 87.3225 51.5051Z" fill="#9B643D"/>
<path d="M92.2354 38.0728C92.2354 36.7291 91.5654 35.6094 90.8954 35.6094C90.002 35.6094 89.5554 36.7291 89.332 38.0728C89.332 39.4164 90.002 40.5361 90.672 40.5361C91.5654 40.3122 92.012 39.4164 92.2354 38.0728Z" fill="#3A312E"/>
<path d="M58.2897 97.1926C52.7064 106.15 50.0264 113.093 46.8997 130.336C46.6764 131.68 33.053 130.336 33.9464 120.931C34.6164 113.317 39.5297 91.1461 48.0164 77.7095C50.2497 74.1264 54.9397 67.4081 58.0664 71.887C62.3097 78.1574 61.6397 92.0419 58.2897 97.1926Z" fill="white"/>
<path d="M86.2068 101.002H85.9835C87.1002 97.4192 84.6435 97.1953 84.6435 97.1953C84.6435 97.6432 84.1968 98.0911 83.9735 98.539C83.5268 99.2108 82.8568 99.6587 82.4102 100.107C81.7402 100.778 81.0702 101.226 80.4002 101.674C79.7302 102.346 79.0601 102.794 78.3901 103.242L78.1668 103.466L77.4968 104.138C76.8268 104.809 76.1568 105.705 75.4868 106.377C74.5935 107.273 73.9235 108.392 73.0302 109.288C72.8068 109.512 72.3602 110.184 72.1368 110.408C71.9135 111.08 72.8068 111.08 73.2535 111.528L75.2635 114.215L79.7302 111.976L85.9835 110.408L89.1102 110.856C89.7802 110.856 90.6735 109.96 90.8968 109.288L91.7901 106.825C92.0135 106.377 92.0135 105.705 91.5668 105.257L90.0035 103.018L93.5768 102.122C95.1402 101.674 96.2568 100.331 96.2568 98.7629V98.539L86.2068 101.002Z" fill="#BF8F67"/>
<path d="M50.2484 108.838C51.3651 109.286 49.3551 114.661 52.4817 114.661C59.4051 114.437 65.8817 112.869 73.0284 109.51L76.6017 113.989C73.9217 116.005 60.2984 134.816 41.7617 130.113C35.9551 128.545 37.9651 103.24 50.2484 108.838Z" fill="white"/>
<path d="M178.889 70.9873L189.386 92.7099L173.083 100.772L174.423 103.459C175.093 105.027 175.539 106.594 175.539 108.162C175.539 109.73 175.316 111.297 174.869 112.641C174.423 114.208 173.529 115.552 172.413 116.672C171.296 117.792 170.179 118.911 168.616 119.583C167.053 120.255 165.489 120.703 163.926 120.703C162.363 120.703 160.799 120.479 159.459 120.031C157.896 119.583 156.556 118.687 155.439 117.568C154.323 116.448 153.206 115.328 152.536 113.761L151.196 111.073L134.893 118.911L127.076 102.563L124.396 103.907C122.833 104.579 121.269 105.027 119.706 105.027C118.143 105.027 116.579 104.803 115.239 104.355C113.899 103.907 112.336 103.011 111.219 101.892C110.103 100.772 108.986 99.6521 108.316 98.0845C107.646 96.5169 107.199 94.9493 107.199 93.3817C107.199 91.8141 107.423 90.2465 107.869 88.9028C108.316 87.3352 109.209 85.9916 110.326 84.8718C111.443 83.7521 112.559 82.6324 114.123 81.9606L116.803 80.6169L108.986 64.269L125.289 56.431L123.949 53.7437C123.279 52.1761 122.833 50.6085 122.833 49.0408C122.833 47.4732 123.056 45.9056 123.503 44.562C123.949 42.9944 124.843 41.6507 125.959 40.531C127.076 39.4113 128.193 38.2915 129.756 37.6197C131.319 36.9479 132.883 36.5 134.446 36.5C136.009 36.5 137.573 36.7239 138.913 37.1718C140.253 37.6197 141.816 38.5155 142.933 39.6352C144.049 40.7549 145.166 41.8746 145.836 43.4423L147.176 46.1296L163.479 38.2916L173.976 60.0141L165.936 64.0451C165.266 64.269 164.596 64.9408 163.926 65.3887C163.479 66.0606 163.033 66.7324 162.809 67.4042C162.586 68.0761 162.363 68.9718 162.586 69.6437C162.586 70.5394 162.809 71.2113 163.256 71.8831C163.479 72.5549 164.149 73.2268 164.819 73.8986C165.489 74.5704 166.159 74.7944 166.829 75.0183C167.499 75.2423 168.393 75.4662 169.063 75.2423C169.733 75.0183 170.626 75.0183 171.296 74.5704L178.889 70.9873Z" fill="#3E8EED"/>
<path d="M199.212 122.495C200.329 134.588 210.825 143.546 222.885 142.65C234.945 141.53 243.879 131.005 242.985 118.912C241.869 106.819 231.372 97.8613 219.312 98.757C207.252 99.6528 198.319 110.402 199.212 122.495Z" fill="#28C2D1"/>
<path d="M211.942 112.641H230.255C231.148 112.641 232.042 113.536 232.042 114.432V128.989C232.042 129.884 231.148 130.78 230.255 130.78H211.718C210.825 130.78 209.932 129.884 209.932 128.989V114.432C210.155 113.536 211.048 112.641 211.942 112.641Z" fill="#F6F6F6"/>
<path d="M225.824 121.438L225.834 118.302L228.961 118.313L228.951 121.448L225.824 121.438Z" fill="#28C2D1"/>
<path d="M225.812 127.234L225.823 124.099L228.949 124.109L228.939 127.244L225.812 127.234Z" fill="#28C2D1"/>
<path d="M219.586 121.414L219.596 118.279L222.723 118.289L222.713 121.424L219.586 121.414Z" fill="#28C2D1"/>
<path d="M219.576 127.211L219.586 124.076L222.713 124.086L222.703 127.221L219.576 127.211Z" fill="#28C2D1"/>
<path d="M213.35 121.391L213.36 118.255L216.486 118.266L216.476 121.401L213.35 121.391Z" fill="#28C2D1"/>
<path d="M213.334 127.188L213.344 124.052L216.471 124.062L216.461 127.198L213.334 127.188Z" fill="#28C2D1"/>
<path d="M228.023 114.435C228.023 114.882 228.47 115.33 228.917 115.33C229.363 115.33 229.81 114.882 229.81 114.435V111.075C229.81 110.628 229.363 110.18 228.917 110.18C228.47 110.18 228.023 110.628 228.023 111.075V114.435Z" fill="#F6F6F6"/>
<path d="M228.023 114.435V112.867H229.81V114.435C229.81 114.883 229.363 115.331 228.917 115.331C228.47 115.331 228.023 114.883 228.023 114.435Z" fill="#28C2D1"/>
<path d="M222.887 114.435C222.887 114.882 223.333 115.33 223.78 115.33C224.227 115.33 224.673 114.882 224.673 114.435V111.075C224.673 110.628 224.227 110.18 223.78 110.18C223.333 110.18 222.887 110.628 222.887 111.075V114.435Z" fill="#F6F6F6"/>
<path d="M222.887 114.435V112.867H224.673V114.435C224.673 114.883 224.227 115.331 223.78 115.331C223.333 115.331 222.887 114.883 222.887 114.435Z" fill="#28C2D1"/>
<path d="M217.75 114.435C217.75 114.882 218.197 115.33 218.643 115.33C219.09 115.33 219.537 114.882 219.537 114.435V111.075C219.537 110.628 219.09 110.18 218.643 110.18C218.197 110.18 217.75 110.628 217.75 111.075V114.435Z" fill="#F6F6F6"/>
<path d="M217.75 114.435V112.867H219.537V114.435C219.537 114.883 219.09 115.331 218.643 115.331C218.197 115.331 217.75 114.883 217.75 114.435Z" fill="#28C2D1"/>
<path d="M212.613 114.435C212.613 114.882 213.06 115.33 213.507 115.33C213.953 115.33 214.4 114.882 214.4 114.435V111.075C214.4 110.628 213.953 110.18 213.507 110.18C213.06 110.18 212.613 110.628 212.613 111.075V114.435Z" fill="#F6F6F6"/>
<path d="M212.613 114.435V112.867H214.4V114.435C214.4 114.883 213.953 115.331 213.507 115.331C212.837 115.331 212.613 114.883 212.613 114.435Z" fill="#28C2D1"/>
<path d="M206.136 61.5833C208.146 74.796 220.653 83.7538 234.053 81.7383C247.453 79.7228 256.386 67.1819 254.376 53.9693C252.366 40.7566 239.86 31.7988 226.46 33.8143C213.283 35.8298 204.126 48.3707 206.136 61.5833Z" fill="#E76750"/>
<path d="M221.1 52.1817C221.1 47.2549 225.12 43 230.256 43C235.393 43 239.413 47.031 239.413 51.9577V56.4366H235.84V51.9577C235.84 49.0465 233.383 46.5831 230.256 46.5831C227.353 46.5831 224.673 49.0465 224.896 51.9577V56.4366H221.323L221.1 52.1817Z" fill="#F6F6F6"/>
<path d="M219.312 57.7759V70.5407C219.312 71.4365 220.206 72.3323 221.099 72.3323H239.413C240.306 72.3323 241.199 71.4365 241.199 70.5407V57.7759C241.199 56.8801 240.306 55.9844 239.413 55.9844H221.099C220.206 55.9844 219.312 56.6562 219.312 57.7759ZM228.693 64.4942C228.023 64.0463 227.576 63.1506 227.576 62.2548C227.576 60.6872 228.916 59.3435 230.703 59.5675C232.043 59.7914 232.936 60.6872 233.159 61.8069C233.383 62.9266 232.936 63.8224 232.043 64.4942L233.159 67.6294V67.8534C233.159 68.3013 232.713 68.5252 232.489 68.5252H228.469C228.023 68.5252 227.799 68.0773 227.799 67.8534V67.6294L228.693 64.4942Z" fill="#F6F6F6"/>
<path d="M178.813 157.506C185.514 156.443 190.086 150.134 189.025 143.415C187.964 136.696 181.673 132.112 174.972 133.176C168.272 134.239 163.7 140.548 164.761 147.267C165.821 153.986 172.113 158.57 178.813 157.506Z" fill="#4A78B0"/>
<path d="M181.57 145.119V145.567L183.133 146.687L182.24 149.15L180.453 148.703L180.23 148.926L180.676 150.718L178.22 151.614L177.326 150.046H176.88L175.763 151.614L173.306 150.718L173.753 148.926L173.53 148.703L171.743 149.15L170.85 146.687L172.413 145.791V145.343L170.85 144.224L171.966 141.76L173.753 142.208L173.976 141.984L173.53 140.193L175.986 139.297L176.88 140.864H177.326L178.443 139.297L180.9 140.417L180.453 142.208L180.676 142.432L182.463 141.984L183.356 144.448L181.57 145.119ZM176.88 147.583C177.103 147.583 177.55 147.583 177.773 147.359C177.996 147.135 178.22 147.135 178.443 146.911C178.666 146.687 178.89 146.463 178.89 146.239C179.113 146.015 179.113 145.567 179.113 145.343C179.113 145.119 179.113 144.672 178.89 144.448C178.666 144.224 178.666 144 178.443 143.776C178.22 143.552 177.996 143.328 177.773 143.328C177.55 143.104 177.103 143.104 176.88 143.104C176.656 143.104 176.21 143.104 175.986 143.328C175.763 143.552 175.54 143.552 175.316 143.776C175.093 144 174.87 144.224 174.87 144.448C174.87 144.672 174.646 145.119 174.646 145.343C174.646 145.567 174.646 146.015 174.87 146.239C175.093 146.463 175.093 146.687 175.316 146.911C175.54 147.135 175.763 147.359 175.986 147.359C176.21 147.359 176.656 147.583 176.88 147.583Z" fill="#F6F6F6"/>
<path d="M192.283 33.1386C200.917 31.6669 206.726 23.4559 205.258 14.7987C203.791 6.1416 195.602 0.316666 186.968 1.78837C178.335 3.26007 172.526 11.4711 173.993 20.1282C175.461 28.7854 183.65 34.6103 192.283 33.1386Z" fill="#F7B548"/>
<path d="M192.736 19.9343H194.746L194.969 19.7104C194.969 19.7104 194.969 19.4864 195.193 19.4864L197.203 13.4399C197.203 13.216 197.203 12.9921 196.756 12.7681L183.356 12.9921L182.686 10.9766H180.676C180.453 10.9766 180.006 11.2005 180.006 11.4244C180.006 11.6484 180.229 11.8723 180.676 11.8723H182.016L185.366 22.1737C185.143 22.3977 184.919 22.3977 184.696 22.8456C184.473 23.0695 184.473 23.2935 184.473 23.7414C184.473 23.9653 184.473 24.1892 184.696 24.4132C184.696 24.6371 184.919 24.8611 184.919 24.8611C185.143 25.085 185.143 25.085 185.366 25.085C185.589 25.085 185.813 25.309 186.036 25.309C186.259 25.309 186.483 25.309 186.706 25.085C186.929 25.085 187.153 24.8611 187.153 24.8611C187.153 24.8611 187.376 24.6371 187.376 24.4132C187.376 24.1892 187.599 23.9653 187.599 23.7414V23.2935H191.843V23.7414C191.843 23.9653 191.843 24.1892 192.066 24.4132C192.066 24.6371 192.289 24.8611 192.289 24.8611C192.513 25.085 192.513 25.085 192.736 25.085C192.959 25.085 193.183 25.309 193.406 25.309C193.629 25.309 193.853 25.309 194.076 25.085C194.299 25.085 194.523 24.8611 194.523 24.8611C194.746 24.6371 194.746 24.6371 194.746 24.4132C194.746 24.1892 194.969 23.9653 194.969 23.7414C194.969 23.5174 194.969 23.2935 194.746 23.0695C194.746 22.8456 194.523 22.6216 194.523 22.6216C194.299 22.3977 194.299 22.3977 194.076 22.3977C193.853 22.3977 193.629 22.1737 193.406 22.1737H186.706L186.036 20.1583L192.736 19.9343ZM192.736 23.0695C192.736 23.0695 192.959 22.8456 193.183 22.8456C193.406 22.8456 193.406 22.8456 193.629 23.0695C193.629 23.0695 193.853 23.2935 193.853 23.5174C193.853 23.7414 193.853 23.7414 193.629 23.9653C193.629 23.9653 193.406 24.1892 193.183 24.1892C192.959 24.1892 192.959 24.1892 192.736 23.9653C192.736 23.9653 192.513 23.7414 192.513 23.5174C192.736 23.2935 192.736 23.0695 192.736 23.0695ZM185.589 23.0695C185.589 23.0695 185.813 22.8456 186.036 22.8456C186.259 22.8456 186.259 22.8456 186.483 23.0695C186.483 23.0695 186.706 23.2935 186.706 23.5174C186.706 23.7414 186.706 23.7414 186.483 23.9653C186.483 23.9653 186.259 24.1892 186.036 24.1892C185.813 24.1892 185.813 24.1892 185.589 23.9653C185.589 23.9653 185.366 23.7414 185.366 23.5174C185.589 23.2935 185.589 23.2935 185.589 23.0695Z" fill="#F6F6F6"/>
<path d="M208.147 147.134C208.147 147.358 207.923 147.582 207.7 147.582C207.03 147.582 206.583 148.253 206.583 149.149C206.583 149.373 206.36 149.597 206.137 149.597C205.913 149.597 205.69 149.373 205.69 149.149C205.69 148.253 205.243 147.582 204.573 147.582C204.35 147.582 204.127 147.358 204.127 147.134C204.127 146.91 204.35 146.686 204.573 146.686C205.243 146.686 205.69 146.014 205.69 145.118C205.69 144.894 205.913 144.67 206.137 144.67C206.36 144.67 206.583 144.894 206.583 145.118C206.583 146.014 207.03 146.686 207.7 146.686C207.923 146.686 208.147 146.91 208.147 147.134ZM195.863 153.18C195.863 153.628 196.31 153.852 196.533 153.852C197.427 153.852 198.097 154.972 198.097 156.091C198.097 156.539 198.543 156.763 198.767 156.763C198.99 156.763 199.437 156.315 199.437 156.091C199.437 154.748 200.107 153.852 201 153.852C201.447 153.852 201.67 153.404 201.67 153.18C201.67 152.956 201.67 152.284 201.223 152.284C200.33 152.284 199.66 151.165 199.66 150.045C199.66 149.597 199.213 149.373 198.99 149.373C198.767 149.373 198.32 149.821 198.32 150.045C198.32 151.389 197.65 152.284 196.757 152.284C196.31 152.284 195.863 152.732 195.863 153.18ZM196.087 83.7576C196.98 83.7576 197.873 82.6379 197.873 81.2942C197.873 80.8463 198.32 80.3984 198.767 80.3984C199.213 80.3984 199.66 80.8463 199.66 81.2942C199.66 82.6379 200.33 83.7576 201.447 83.7576C201.893 83.7576 202.34 84.2055 202.34 84.6534C202.34 85.1012 201.893 85.5491 201.447 85.5491C200.553 85.5491 199.66 86.6689 199.66 88.0125C199.66 88.4604 199.213 88.9083 198.767 88.9083C198.32 88.9083 197.873 88.4604 197.873 88.0125C197.873 86.6689 197.203 85.5491 196.087 85.5491C195.64 85.5491 195.193 85.1012 195.193 84.6534C195.193 84.2055 195.64 83.7576 196.087 83.7576Z" fill="#FFE399"/>
</g>
<defs>
<radialGradient id="paint0_radial_1964_63326" cx="0" cy="0" r="1" gradientUnits="userSpaceOnUse" gradientTransform="translate(83.2571 109.604) rotate(2.3303) scale(24.8028 25.3758)">
<stop offset="0.06" stop-color="#C8C6C4"/>
<stop offset="0.913" stop-color="white"/>
</radialGradient>
<radialGradient id="paint1_radial_1964_63326" cx="0" cy="0" r="1" gradientUnits="userSpaceOnUse" gradientTransform="translate(41.643 108.056) rotate(-174.167) scale(32.6759 33.035)">
<stop offset="0.06" stop-color="#C8C6C4"/>
<stop offset="0.913" stop-color="white"/>
</radialGradient>
<radialGradient id="paint2_radial_1964_63326" cx="0" cy="0" r="1" gradientUnits="userSpaceOnUse" gradientTransform="translate(75.5232 45.9895) rotate(180) scale(12.1692 12.2025)">
<stop stop-color="#9B643D"/>
<stop offset="0.892" stop-color="#BA8A63"/>
<stop offset="1" stop-color="#BF8F67"/>
</radialGradient>
<radialGradient id="paint3_radial_1964_63326" cx="0" cy="0" r="1" gradientUnits="userSpaceOnUse" gradientTransform="translate(85.8758 43.1021) scale(5.87599 5.89205)">
<stop stop-color="#9B643D"/>
<stop offset="1" stop-color="#BF8F67"/>
</radialGradient>
<clipPath id="clip0_1964_63326">
<rect width="268" height="159" fill="white"/>
</clipPath>
</defs>
</svg>
