<svg width="23" height="22" viewBox="0 0 23 22" fill="none" xmlns="http://www.w3.org/2000/svg">
<path fill-rule="evenodd" clip-rule="evenodd" d="M12.416 2H6.28603C5.73302 2 5.28471 2.44772 5.28471 3V7.27778H0.500656C0.224151 7.27778 0 7.50164 0 7.77778V14.2022C0 14.5696 0.201721 14.9074 0.525384 15.0821L5.28471 17.6498V21C5.28471 21.5523 5.73302 22 6.28603 22L16.0128 22C16.5658 22 17.0141 21.5523 17.0141 21V17.6498L21.7735 15.0821C22.0971 14.9074 22.2988 14.5696 22.2988 14.2022V7.77778C22.2988 7.50164 22.0747 7.27778 21.7982 7.27778H20.7758C19.862 8.32959 18.5159 8.99583 17.0141 8.99998V17.6498L11.7565 20.4865C11.1625 20.8069 11.1364 20.8069 10.5424 20.4865L5.28471 17.6498L5.28471 7.27778L13.2242 7.27778C12.4616 6.4001 12 5.25396 12 4C12 3.2889 12.1484 2.61246 12.416 2Z" fill="#F45513"/>
<circle cx="17" cy="4" r="4" fill="#FF3B30"/>
</svg>
