<svg width="23" height="20" viewBox="0 0 23 20" fill="none" xmlns="http://www.w3.org/2000/svg">
<path fill-rule="evenodd" clip-rule="evenodd" d="M22.2988 5.77778C22.2988 5.50164 22.0747 5.27778 21.7982 5.27778L17.0141 5.27778L17.0141 1C17.0141 0.447715 16.5658 -2.20452e-07 16.0128 -2.44625e-07L6.28601 -6.99943e-07C5.733 -7.24115e-07 5.28469 0.447715 5.28469 0.999999L5.28469 5.27778L0.500637 5.27778C0.224132 5.27778 -1.97163e-05 5.50164 -1.97284e-05 5.77778L-2.00092e-05 12.2022C-2.00253e-05 12.5696 0.201701 12.9074 0.525365 13.0821L5.28469 15.6498L5.28469 19C5.28469 19.5523 5.733 20 6.28601 20L16.0128 20C16.5658 20 17.0141 19.5523 17.0141 19L17.0141 15.6498L21.7734 13.0821C22.0971 12.9074 22.2988 12.5696 22.2988 12.2022L22.2988 5.77778ZM17.0141 15.6498L17.0141 5.27778L5.28469 5.27778L5.28469 15.6498L10.5424 18.4865C11.1364 18.8069 11.1624 18.8069 11.7564 18.4865L17.0141 15.6498Z" fill="#F45513"/>
</svg>
