<svg xmlns="http://www.w3.org/2000/svg" width="45" height="40" fill="none" viewBox="0 0 45 40">
  <path fill="#F45513" fill-rule="evenodd" d="M44.364 11.556c0-.553-.446-1-.996-1H33.85V2c0-1.105-.892-2-1.992-2H12.506c-1.1 0-1.992.895-1.992 2v8.556H.996a.998.998 0 0 0-.996 1v12.848c0 .735.401 1.41 1.045 1.76l9.469 5.136V38c0 1.105.892 2 1.992 2h19.352c1.1 0 1.992-.895 1.992-2v-6.7l9.468-5.136a2.001 2.001 0 0 0 1.046-1.76V11.556ZM33.85 31.3V10.556H10.514V31.3l10.46 5.673c1.182.64 1.234.64 2.416 0L33.85 31.3Z" clip-rule="evenodd"/>
</svg>
