<svg xmlns="http://www.w3.org/2000/svg" width="104" height="20" fill="none" viewBox="0 0 104 20">
  <path fill="#F45513" fill-rule="evenodd" d="M22.299 5.778a.5.5 0 0 0-.5-.5h-4.785V1a1 1 0 0 0-1.001-1H6.286a1 1 0 0 0-1.001 1v4.278H.5a.5.5 0 0 0-.5.5v6.424a1 1 0 0 0 .525.88l4.759 2.568V19a1 1 0 0 0 1.001 1h9.727a1 1 0 0 0 1.001-1v-3.35l4.76-2.568a1 1 0 0 0 .525-.88V5.778Zm-5.285 9.872V5.278H5.284V15.65l5.259 2.836c.594.32.62.32 1.214 0l5.257-2.836Z" clip-rule="evenodd"/>
  <path fill="#fff" d="M31.847 16.3h-4.215V3.864h4.3c1.235 0 2.296.25 3.182.747a4.994 4.994 0 0 1 2.053 2.132c.478.927.717 2.036.717 3.328 0 1.296-.241 2.409-.723 3.34a4.995 4.995 0 0 1-2.07 2.144c-.9.498-1.98.747-3.244.747Zm-1.962-1.949h1.853c.866 0 1.589-.158 2.168-.473a3.03 3.03 0 0 0 1.306-1.428c.291-.635.437-1.429.437-2.38 0-.952-.146-1.741-.438-2.369-.291-.631-.722-1.103-1.293-1.415-.567-.315-1.271-.473-2.113-.473h-1.92v8.538ZM43.687 16.3c-.911 0-1.7-.2-2.369-.6a4.083 4.083 0 0 1-1.554-1.683c-.365-.72-.547-1.562-.547-2.526 0-.964.182-1.808.547-2.532a4.075 4.075 0 0 1 1.554-1.689c.669-.4 1.458-.601 2.369-.601.91 0 1.7.2 2.368.601a4.034 4.034 0 0 1 1.549 1.689c.368.724.553 1.568.553 2.532s-.184 1.806-.553 2.526a4.042 4.042 0 0 1-1.549 1.683c-.668.4-1.457.6-2.368.6Zm.012-1.76c.494 0 .907-.136 1.239-.407.332-.275.579-.644.74-1.105.167-.462.25-.976.25-1.543 0-.57-.083-1.087-.25-1.549-.161-.465-.408-.836-.74-1.111s-.745-.413-1.239-.413c-.506 0-.927.138-1.263.413-.332.275-.581.646-.747 1.111a4.654 4.654 0 0 0-.243 1.549c0 .567.08 1.08.243 1.543.166.461.415.83.747 1.105.336.271.757.407 1.263.407Zm8.427 1.76L49.49 6.974h2.24l1.64 6.558h.086l1.676-6.558h2.216l1.677 6.522h.09l1.616-6.522h2.247L60.336 16.3h-2.29l-1.748-6.304h-.128L54.421 16.3h-2.295Zm14.384-5.465v5.466h-2.2V6.973h2.102v1.585h.109a2.666 2.666 0 0 1 1.026-1.245c.474-.308 1.06-.462 1.755-.462.644 0 1.205.138 1.683.413.481.275.854.674 1.117 1.196.267.523.399 1.156.395 1.901v5.94h-2.199v-5.6c0-.623-.162-1.11-.485-1.463-.32-.352-.764-.529-1.33-.529-.385 0-.727.086-1.027.256a1.768 1.768 0 0 0-.698.722c-.166.316-.25.699-.25 1.148Zm9.52-6.972v12.438h-2.2V3.863h2.199ZM81.833 16.3c-.91 0-1.7-.2-2.368-.6a4.082 4.082 0 0 1-1.555-1.683c-.364-.72-.547-1.562-.547-2.526 0-.964.183-1.808.547-2.532a4.074 4.074 0 0 1 1.555-1.689c.668-.4 1.457-.601 2.368-.601.911 0 1.7.2 2.369.601a4.032 4.032 0 0 1 1.548 1.689c.369.724.553 1.568.553 2.532s-.184 1.806-.553 2.526a4.042 4.042 0 0 1-1.548 1.683c-.668.4-1.458.6-2.369.6Zm.012-1.76c.494 0 .907-.136 1.24-.407.331-.275.578-.644.74-1.105.166-.462.25-.976.25-1.543a4.56 4.56 0 0 0-.25-1.549c-.162-.465-.409-.836-.74-1.111-.333-.275-.746-.413-1.24-.413-.506 0-.927.138-1.263.413-.332.275-.58.646-.747 1.111a4.654 4.654 0 0 0-.243 1.549c0 .567.081 1.08.243 1.543.166.461.415.83.747 1.105.336.271.757.407 1.263.407Z"/>
  <path fill="#F45513" d="M91.48 16.3a3.53 3.53 0 0 1-1.968-.564c-.578-.377-1.036-.923-1.372-1.64-.336-.716-.504-1.587-.504-2.611 0-1.037.17-1.911.51-2.624.344-.716.808-1.257 1.39-1.621a3.574 3.574 0 0 1 1.95-.553c.547 0 .996.093 1.349.28.352.182.631.402.838.661.206.256.366.496.48.723h.09V3.7h2.205v12.438h-2.162v-1.47h-.134a3.748 3.748 0 0 1-.492.723 2.706 2.706 0 0 1-.85.644c-.352.178-.795.267-1.33.267Zm.614-1.803c.465 0 .862-.125 1.19-.376.328-.255.577-.61.747-1.063.17-.454.255-.982.255-1.585 0-.604-.085-1.128-.255-1.573-.166-.446-.413-.792-.741-1.039-.324-.247-.723-.37-1.196-.37-.49 0-.9.127-1.227.382-.328.256-.575.608-.741 1.057-.166.45-.25.964-.25 1.543 0 .583.084 1.103.25 1.56.17.454.419.812.747 1.075.332.26.739.39 1.22.39Zm5.687 1.803V6.973h2.132v1.555h.097c.17-.538.462-.953.875-1.245a2.405 2.405 0 0 1 1.427-.443c.121 0 .257.006.407.018.154.008.281.022.382.043v2.022a2.312 2.312 0 0 0-.443-.085 4.079 4.079 0 0 0-.577-.043c-.401 0-.761.087-1.081.262-.316.17-.565.406-.747.71a2.004 2.004 0 0 0-.273 1.05v5.485h-2.2Z"/>
</svg>
