<svg width="1000" height="280" viewBox="0 0 507 126" fill="none" xmlns="http://www.w3.org/2000/svg">
<path fill-rule="evenodd" clip-rule="evenodd" d="M117 45.1333C117 43.9321 116.025 42.9583 114.822 42.9583L94.0115 42.9583L94.0115 24.35C94.0115 21.9476 92.0614 20 89.6558 20L47.3442 20C44.9386 20 42.9885 21.9476 42.9885 24.35L42.9885 42.9583L22.1779 42.9583C20.9751 42.9583 20 43.9321 20 45.1333L20 73.0798C20 74.6779 20.8775 76.1474 22.2854 76.907L42.9885 88.0767L42.9885 102.65C42.9885 105.052 44.9386 107 47.3442 107L89.6558 107C92.0614 107 94.0115 105.052 94.0115 102.65L94.0115 88.0767L114.715 76.907C116.123 76.1474 117 74.6779 117 73.0798L117 45.1333ZM94.0115 88.0767L94.0115 42.9583L42.9885 42.9583L42.9885 88.0767L65.8594 100.416C68.4433 101.81 68.5567 101.81 71.1406 100.416L94.0115 88.0767Z" fill="#F45513"/>
<path d="M161.716 107H142V48.8182H162.114C167.89 48.8182 172.852 49.983 177 52.3125C181.167 54.6231 184.367 57.947 186.602 62.2841C188.837 66.6212 189.955 71.8106 189.955 77.8523C189.955 83.9129 188.828 89.1212 186.574 93.4773C184.339 97.8333 181.11 101.176 176.886 103.506C172.682 105.835 167.625 107 161.716 107ZM152.54 97.8807H161.205C165.258 97.8807 168.638 97.1421 171.347 95.6648C174.055 94.1686 176.091 91.9432 177.455 88.9886C178.818 86.0152 179.5 82.303 179.5 77.8523C179.5 73.4015 178.818 69.7083 177.455 66.7727C176.091 63.8182 174.074 61.6118 171.403 60.1534C168.752 58.6761 165.456 57.9375 161.517 57.9375H152.54V97.8807Z" fill="#FEF9F3"/>
<path d="M215.864 107C211.602 107 207.909 106.063 204.784 104.188C201.659 102.313 199.235 99.6894 197.511 96.3182C195.807 92.947 194.955 89.0076 194.955 84.5C194.955 79.9924 195.807 76.0436 197.511 72.6534C199.235 69.2633 201.659 66.6307 204.784 64.7557C207.909 62.8807 211.602 61.9432 215.864 61.9432C220.125 61.9432 223.818 62.8807 226.943 64.7557C230.068 66.6307 232.483 69.2633 234.188 72.6534C235.911 76.0436 236.773 79.9924 236.773 84.5C236.773 89.0076 235.911 92.947 234.188 96.3182C232.483 99.6894 230.068 102.313 226.943 104.188C223.818 106.063 220.125 107 215.864 107ZM215.92 98.7614C218.231 98.7614 220.163 98.1269 221.716 96.858C223.269 95.5701 224.424 93.8466 225.182 91.6875C225.958 89.5284 226.347 87.1231 226.347 84.4716C226.347 81.8011 225.958 79.3864 225.182 77.2273C224.424 75.0493 223.269 73.3163 221.716 72.0284C220.163 70.7405 218.231 70.0966 215.92 70.0966C213.553 70.0966 211.583 70.7405 210.011 72.0284C208.458 73.3163 207.294 75.0493 206.517 77.2273C205.759 79.3864 205.381 81.8011 205.381 84.4716C205.381 87.1231 205.759 89.5284 206.517 91.6875C207.294 93.8466 208.458 95.5701 210.011 96.858C211.583 98.1269 213.553 98.7614 215.92 98.7614Z" fill="#FEF9F3"/>
<path d="M254.102 107L241.773 63.3636H252.256L259.926 94.0455H260.324L268.165 63.3636H278.534L286.375 93.875H286.801L294.358 63.3636H304.869L292.511 107H281.801L273.619 77.5114H273.023L264.841 107H254.102Z" fill="#FEF9F3"/>
<path d="M320.153 81.4318V107H309.869V63.3636H319.699V70.7784H320.21C321.214 68.3352 322.814 66.3939 325.011 64.9546C327.227 63.5152 329.964 62.7955 333.222 62.7955C336.233 62.7955 338.856 63.4394 341.091 64.7273C343.345 66.0152 345.087 67.8807 346.318 70.3239C347.568 72.7671 348.184 75.7311 348.165 79.2159V107H337.881V80.8068C337.881 77.8902 337.123 75.608 335.608 73.9602C334.112 72.3125 332.038 71.4886 329.386 71.4886C327.587 71.4886 325.987 71.8864 324.585 72.6818C323.203 73.4583 322.114 74.5852 321.318 76.0625C320.542 77.5398 320.153 79.3296 320.153 81.4318Z" fill="#FEF9F3"/>
<path d="M363.449 48.8182V107H353.165V48.8182H363.449Z" fill="#FEF9F3"/>
<path d="M389.358 107C385.097 107 381.404 106.063 378.279 104.188C375.154 102.313 372.73 99.6894 371.006 96.3182C369.302 92.947 368.449 89.0076 368.449 84.5C368.449 79.9924 369.302 76.0436 371.006 72.6534C372.73 69.2633 375.154 66.6307 378.279 64.7557C381.404 62.8807 385.097 61.9432 389.358 61.9432C393.62 61.9432 397.313 62.8807 400.438 64.7557C403.563 66.6307 405.978 69.2633 407.682 72.6534C409.406 76.0436 410.267 79.9924 410.267 84.5C410.267 89.0076 409.406 92.947 407.682 96.3182C405.978 99.6894 403.563 102.313 400.438 104.188C397.313 106.063 393.62 107 389.358 107ZM389.415 98.7614C391.726 98.7614 393.658 98.1269 395.211 96.858C396.764 95.5701 397.919 93.8466 398.677 91.6875C399.453 89.5284 399.841 87.1231 399.841 84.4716C399.841 81.8011 399.453 79.3864 398.677 77.2273C397.919 75.0493 396.764 73.3163 395.211 72.0284C393.658 70.7405 391.726 70.0966 389.415 70.0966C387.048 70.0966 385.078 70.7405 383.506 72.0284C381.953 73.3163 380.788 75.0493 380.012 77.2273C379.254 79.3864 378.875 81.8011 378.875 84.4716C378.875 87.1231 379.254 89.5284 380.012 91.6875C380.788 93.8466 381.953 95.5701 383.506 96.858C385.078 98.1269 387.048 98.7614 389.415 98.7614Z" fill="#FEF9F3"/>
<path d="M433.25 107C429.822 107 426.754 106.119 424.046 104.358C421.338 102.597 419.197 100.04 417.625 96.6875C416.053 93.3352 415.267 89.2633 415.267 84.4716C415.267 79.6231 416.063 75.5322 417.654 72.1989C419.264 68.8466 421.432 66.3182 424.159 64.6136C426.887 62.8902 429.927 62.0284 433.279 62.0284C435.836 62.0284 437.938 62.464 439.586 63.3352C441.233 64.1875 442.54 65.2197 443.506 66.4318C444.472 67.625 445.22 68.7519 445.75 69.8125H446.177V48.0511H456.489V106.233H446.375V99.358H445.75C445.22 100.419 444.453 101.545 443.449 102.739C442.445 103.913 441.12 104.917 439.472 105.75C437.824 106.583 435.75 107 433.25 107ZM436.12 98.5625C438.298 98.5625 440.154 97.9754 441.688 96.8012C443.222 95.608 444.387 93.9508 445.182 91.8296C445.978 89.7083 446.375 87.2368 446.375 84.4148C446.375 81.5928 445.978 79.1402 445.182 77.0568C444.406 74.9735 443.25 73.3542 441.716 72.1989C440.201 71.0436 438.336 70.4659 436.12 70.4659C433.828 70.4659 431.915 71.0625 430.381 72.2557C428.847 73.4489 427.692 75.0966 426.915 77.1989C426.139 79.3011 425.75 81.7065 425.75 84.4148C425.75 87.1421 426.139 89.5758 426.915 91.7159C427.711 93.8371 428.875 95.5133 430.409 96.7443C431.963 97.9564 433.866 98.5625 436.12 98.5625Z" fill="#F45513"/>
<path d="M461.489 107V63.3636H471.461V70.6364H471.915C472.711 68.1174 474.074 66.1761 476.006 64.8125C477.957 63.4299 480.182 62.7386 482.682 62.7386C483.25 62.7386 483.885 62.7671 484.586 62.8239C485.305 62.8618 485.902 62.928 486.375 63.0227V72.483C485.94 72.3314 485.249 72.1989 484.302 72.0852C483.374 71.9527 482.474 71.8864 481.603 71.8864C479.728 71.8864 478.042 72.2936 476.546 73.108C475.069 73.9034 473.904 75.0114 473.052 76.4318C472.199 77.8523 471.773 79.4905 471.773 81.3466V107H461.489Z" fill="#F45513"/>
</svg>
